<svg width="110" height="45" viewBox="0 0 110 45" fill="none" xmlns="http://www.w3.org/2000/svg">
<g clip-path="url(#clip0_211_68)">
<path d="M16.3469 44.6902L0.00415039 34.958V28.3475L16.3469 38.0797V44.6902Z" fill="white"/>
<path d="M32.6897 34.958L16.3469 44.6902V38.0797L32.6897 28.3475V34.958Z" fill="#7049C3"/>
<path d="M16.3427 9.23508L0 18.9673V25.5778L16.3427 15.8456V9.23508Z" fill="white"/>
<path d="M32.6834 18.9673L16.3428 9.23508V15.8456L32.6834 25.5778V18.9673Z" fill="#A3B2BE"/>
<path d="M16.3469 35.325L0.00415039 25.5949V18.9844L16.3469 28.7145V35.325Z" fill="white"/>
<path d="M32.6897 25.5949L16.3469 35.325V28.7145L32.6897 18.9844V25.5949Z" fill="#7049C3"/>
<path d="M24.9952 12.504H22.2661V15.2332H24.9952V12.504Z" fill="#7049C3"/>
<path d="M31.1191 9.53592H26.843V13.812H31.1191V9.53592Z" fill="white"/>
<path d="M36.9998 7.50668H32.7236V11.7828H36.9998V7.50668Z" fill="white"/>
<path d="M34.2195 0H28.0081V6.21148H34.2195V0Z" fill="#7049C3"/>
<path d="M26.2498 2.65445H21.0071V7.89718H26.2498V2.65445Z" fill="white"/>
</g>
<path d="M55.96 30.3451L50.056 14.8891H52.768L57.4 27.5371L62.032 14.8891H64.744L58.888 30.3451H55.96ZM63.6263 30.3451L69.5303 14.8891H72.4583L78.3143 30.3451H75.6263L74.0903 26.3611H67.8743L66.3383 30.3451H63.6263ZM68.2823 24.3451H73.6583L70.9703 17.2651L68.2823 24.3451ZM80.0554 30.3451V28.9531L88.3594 17.0251H80.4634V14.8891H91.7194V16.4971L83.4874 28.3291H91.8394V30.3451H80.0554ZM93.2748 30.3451L99.1788 14.8891H102.107L107.963 30.3451H105.275L103.739 26.3611H97.5228L95.9868 30.3451H93.2748ZM97.9308 24.3451H103.307L100.619 17.2651L97.9308 24.3451Z" fill="white"/>
<defs>
<clipPath id="clip0_211_68">
<rect width="37" height="44.6902" fill="white"/>
</clipPath>
</defs>
</svg>
